<?xml version="1.0" encoding="UTF-8" standalone="no"?>
<!DOCTYPE svg PUBLIC "-//W3C//DTD SVG 1.1//EN"
 "http://www.w3.org/Graphics/SVG/1.1/DTD/svg11.dtd">
<!-- Generated by graphviz version 2.26.3 (20100126.1600)
 -->
<!-- Title: models_diagram Pages: 1 -->
<svg width="1132pt" height="970pt"
 viewBox="0.00 0.00 1132.46 970.00" xmlns="http://www.w3.org/2000/svg" xmlns:xlink="http://www.w3.org/1999/xlink">
<g id="graph1" class="graph" transform="scale(1 1) rotate(0) translate(4 966)">
<title>models_diagram</title>
<polygon fill="white" stroke="white" points="-4,5 -4,-966 1129.46,-966 1129.46,5 -4,5"/>
<!-- _diagram_info -->
<g id="node1" class="node"><title>_diagram_info</title>
<text text-anchor="start" x="8" y="-945.8" font-family="Times Roman,serif" font-size="13.00">Models diagram</text>
<text text-anchor="start" x="8" y="-928.8" font-family="Times Roman,serif" font-size="13.00">Date: Jan 18 2015 &#45; 14:53</text>
<text text-anchor="start" x="8" y="-911.8" font-family="Times Roman,serif" font-size="13.00">Migration version: 20150107193509</text>
<text text-anchor="start" x="8" y="-894.8" font-family="Times Roman,serif" font-size="13.00">Generated by RailRoady 1.3.0</text>
<text text-anchor="start" x="8" y="-877.8" font-family="Times Roman,serif" font-size="13.00">http://railroady.prestonlee.com</text>
</g>
<!-- Ability -->
<g id="node2" class="node"><title>Ability</title>
<polygon fill="none" stroke="black" points="281,-660 281,-712 341,-712 341,-660 281,-660"/>
<text text-anchor="middle" x="311" y="-695.4" font-family="Times Roman,serif" font-size="14.00">Ability</text>
<polyline fill="none" stroke="black" points="281,-686 341,-686 "/>
<text text-anchor="middle" x="311" y="-669.4" font-family="Times Roman,serif" font-size="14.00"> </text>
</g>
<!-- Membership -->
<g id="node3" class="node"><title>Membership</title>
<polyline fill="none" stroke="black" points="489.5,-273 630.5,-273 "/>
<path fill="none" stroke="black" d="M630.5,-273C636.5,-273 642.5,-279 642.5,-285"/>
<polyline fill="none" stroke="black" points="642.5,-285 642.5,-403 "/>
<path fill="none" stroke="black" d="M642.5,-403C642.5,-409 636.5,-415 630.5,-415"/>
<polyline fill="none" stroke="black" points="630.5,-415 489.5,-415 "/>
<path fill="none" stroke="black" d="M489.5,-415C483.5,-415 477.5,-409 477.5,-403"/>
<polyline fill="none" stroke="black" points="477.5,-403 477.5,-285 "/>
<path fill="none" stroke="black" d="M477.5,-285C477.5,-279 483.5,-273 489.5,-273"/>
<text text-anchor="middle" x="560" y="-398.4" font-family="Times Roman,serif" font-size="14.00">Membership</text>
<polyline fill="none" stroke="black" points="477.5,-389 642.5,-389 "/>
<text text-anchor="start" x="485.5" y="-372.4" font-family="Times Roman,serif" font-size="14.00">id :integer</text>
<text text-anchor="start" x="485.5" y="-354.4" font-family="Times Roman,serif" font-size="14.00">user_id :integer</text>
<text text-anchor="start" x="485.5" y="-336.4" font-family="Times Roman,serif" font-size="14.00">team_id :integer</text>
<text text-anchor="start" x="485.5" y="-318.4" font-family="Times Roman,serif" font-size="14.00">role :integer</text>
<text text-anchor="start" x="485.5" y="-300.4" font-family="Times Roman,serif" font-size="14.00">created_at :datetime</text>
<text text-anchor="start" x="485.5" y="-282.4" font-family="Times Roman,serif" font-size="14.00">updated_at :datetime</text>
</g>
<!-- Team -->
<g id="node4" class="node"><title>Team</title>
<polyline fill="none" stroke="black" points="718.5,-579 895.5,-579 "/>
<path fill="none" stroke="black" d="M895.5,-579C901.5,-579 907.5,-585 907.5,-591"/>
<polyline fill="none" stroke="black" points="907.5,-591 907.5,-781 "/>
<path fill="none" stroke="black" d="M907.5,-781C907.5,-787 901.5,-793 895.5,-793"/>
<polyline fill="none" stroke="black" points="895.5,-793 718.5,-793 "/>
<path fill="none" stroke="black" d="M718.5,-793C712.5,-793 706.5,-787 706.5,-781"/>
<polyline fill="none" stroke="black" points="706.5,-781 706.5,-591 "/>
<path fill="none" stroke="black" d="M706.5,-591C706.5,-585 712.5,-579 718.5,-579"/>
<text text-anchor="middle" x="807" y="-776.4" font-family="Times Roman,serif" font-size="14.00">Team</text>
<polyline fill="none" stroke="black" points="706.5,-767 907.5,-767 "/>
<text text-anchor="start" x="714.5" y="-750.4" font-family="Times Roman,serif" font-size="14.00">id :integer</text>
<text text-anchor="start" x="714.5" y="-732.4" font-family="Times Roman,serif" font-size="14.00">name :string</text>
<text text-anchor="start" x="714.5" y="-714.4" font-family="Times Roman,serif" font-size="14.00">description :text</text>
<text text-anchor="start" x="714.5" y="-696.4" font-family="Times Roman,serif" font-size="14.00">created_at :datetime</text>
<text text-anchor="start" x="714.5" y="-678.4" font-family="Times Roman,serif" font-size="14.00">updated_at :datetime</text>
<text text-anchor="start" x="714.5" y="-660.4" font-family="Times Roman,serif" font-size="14.00">logo_file_name :string</text>
<text text-anchor="start" x="714.5" y="-642.4" font-family="Times Roman,serif" font-size="14.00">logo_content_type :string</text>
<text text-anchor="start" x="714.5" y="-624.4" font-family="Times Roman,serif" font-size="14.00">logo_file_size :integer</text>
<text text-anchor="start" x="714.5" y="-606.4" font-family="Times Roman,serif" font-size="14.00">logo_updated_at :datetime</text>
<text text-anchor="start" x="714.5" y="-588.4" font-family="Times Roman,serif" font-size="14.00">points :integer</text>
</g>
<!-- Team&#45;&gt;Membership -->
<g id="edge8" class="edge"><title>Team&#45;&gt;Membership</title>
<path fill="none" stroke="#6dfc4e" d="M714.201,-572.364C692.885,-545.138 670.706,-515.871 651,-488 636.594,-467.626 621.799,-445.039 608.436,-423.912"/>
<ellipse fill="none" stroke="#6dfc4e" cx="716.839" cy="-575.724" rx="4.00002" ry="4.00002"/>
<polygon fill="#6dfc4e" stroke="#6dfc4e" points="608.326,-423.735 606.808,-412.875 605.663,-419.504 602.999,-415.272 602.999,-415.272 602.999,-415.272 605.663,-419.504 599.191,-417.668 608.326,-423.735 608.326,-423.735"/>
</g>
<!-- Match -->
<g id="node6" class="node"><title>Match</title>
<polyline fill="none" stroke="black" points="671.5,-246 846.5,-246 "/>
<path fill="none" stroke="black" d="M846.5,-246C852.5,-246 858.5,-252 858.5,-258"/>
<polyline fill="none" stroke="black" points="858.5,-258 858.5,-430 "/>
<path fill="none" stroke="black" d="M858.5,-430C858.5,-436 852.5,-442 846.5,-442"/>
<polyline fill="none" stroke="black" points="846.5,-442 671.5,-442 "/>
<path fill="none" stroke="black" d="M671.5,-442C665.5,-442 659.5,-436 659.5,-430"/>
<polyline fill="none" stroke="black" points="659.5,-430 659.5,-258 "/>
<path fill="none" stroke="black" d="M659.5,-258C659.5,-252 665.5,-246 671.5,-246"/>
<text text-anchor="middle" x="759" y="-425.4" font-family="Times Roman,serif" font-size="14.00">Match</text>
<polyline fill="none" stroke="black" points="659.5,-416 858.5,-416 "/>
<text text-anchor="start" x="667.5" y="-399.4" font-family="Times Roman,serif" font-size="14.00">id :integer</text>
<text text-anchor="start" x="667.5" y="-381.4" font-family="Times Roman,serif" font-size="14.00">home_team_id :integer</text>
<text text-anchor="start" x="667.5" y="-363.4" font-family="Times Roman,serif" font-size="14.00">away_team_id :integer</text>
<text text-anchor="start" x="667.5" y="-345.4" font-family="Times Roman,serif" font-size="14.00">home_team_goals :integer</text>
<text text-anchor="start" x="667.5" y="-327.4" font-family="Times Roman,serif" font-size="14.00">away_team_goals :integer</text>
<text text-anchor="start" x="667.5" y="-309.4" font-family="Times Roman,serif" font-size="14.00">start_date :datetime</text>
<text text-anchor="start" x="667.5" y="-291.4" font-family="Times Roman,serif" font-size="14.00">created_at :datetime</text>
<text text-anchor="start" x="667.5" y="-273.4" font-family="Times Roman,serif" font-size="14.00">updated_at :datetime</text>
<text text-anchor="start" x="667.5" y="-255.4" font-family="Times Roman,serif" font-size="14.00">winner :integer</text>
</g>
<!-- Team&#45;&gt;Match -->
<g id="edge10" class="edge"><title>Team&#45;&gt;Match</title>
<path fill="none" stroke="#5a5696" d="M843.327,-570.374C845.975,-548.897 845.943,-526.709 841,-506 836.638,-487.723 829.861,-469.174 822.031,-451.471"/>
<ellipse fill="none" stroke="#5a5696" cx="842.738" cy="-574.604" rx="4.00001" ry="4.00001"/>
<polygon fill="#5a5696" stroke="#5a5696" points="821.996,-451.395 821.942,-440.429 819.922,-446.845 817.847,-442.296 817.847,-442.296 817.847,-442.296 819.922,-446.845 813.753,-444.163 821.996,-451.395 821.996,-451.395"/>
<text text-anchor="middle" x="895" y="-511.4" font-family="Times Roman,serif" font-size="14.00">home_matches</text>
</g>
<!-- Team&#45;&gt;Match -->
<g id="edge12" class="edge"><title>Team&#45;&gt;Match</title>
<path fill="none" stroke="#099c97" d="M747.429,-571.26C741.5,-555.719 736.418,-539.709 733,-524 727.978,-500.919 728.111,-475.955 730.816,-452.181"/>
<ellipse fill="none" stroke="#099c97" cx="748.944" cy="-575.124" rx="4.00001" ry="4.00001"/>
<polygon fill="#099c97" stroke="#099c97" points="730.841,-451.991 736.588,-442.652 731.483,-447.032 732.125,-442.074 732.125,-442.074 732.125,-442.074 731.483,-447.032 727.663,-441.496 730.841,-451.991 730.841,-451.991"/>
<text text-anchor="middle" x="784.5" y="-511.4" font-family="Times Roman,serif" font-size="14.00">away_matches</text>
</g>
<!-- Player -->
<g id="node7" class="node"><title>Player</title>
<polyline fill="none" stroke="black" points="888,-201 1076,-201 "/>
<path fill="none" stroke="black" d="M1076,-201C1082,-201 1088,-207 1088,-213"/>
<polyline fill="none" stroke="black" points="1088,-213 1088,-475 "/>
<path fill="none" stroke="black" d="M1088,-475C1088,-481 1082,-487 1076,-487"/>
<polyline fill="none" stroke="black" points="1076,-487 888,-487 "/>
<path fill="none" stroke="black" d="M888,-487C882,-487 876,-481 876,-475"/>
<polyline fill="none" stroke="black" points="876,-475 876,-213 "/>
<path fill="none" stroke="black" d="M876,-213C876,-207 882,-201 888,-201"/>
<text text-anchor="middle" x="982" y="-470.4" font-family="Times Roman,serif" font-size="14.00">Player</text>
<polyline fill="none" stroke="black" points="876,-461 1088,-461 "/>
<text text-anchor="start" x="884" y="-444.4" font-family="Times Roman,serif" font-size="14.00">id :integer</text>
<text text-anchor="start" x="884" y="-426.4" font-family="Times Roman,serif" font-size="14.00">first_name :string</text>
<text text-anchor="start" x="884" y="-408.4" font-family="Times Roman,serif" font-size="14.00">last_name :string</text>
<text text-anchor="start" x="884" y="-390.4" font-family="Times Roman,serif" font-size="14.00">date_of_birth :datetime</text>
<text text-anchor="start" x="884" y="-372.4" font-family="Times Roman,serif" font-size="14.00">weight :float</text>
<text text-anchor="start" x="884" y="-354.4" font-family="Times Roman,serif" font-size="14.00">height :float</text>
<text text-anchor="start" x="884" y="-336.4" font-family="Times Roman,serif" font-size="14.00">country :string</text>
<text text-anchor="start" x="884" y="-318.4" font-family="Times Roman,serif" font-size="14.00">created_at :datetime</text>
<text text-anchor="start" x="884" y="-300.4" font-family="Times Roman,serif" font-size="14.00">updated_at :datetime</text>
<text text-anchor="start" x="884" y="-282.4" font-family="Times Roman,serif" font-size="14.00">team_id :integer</text>
<text text-anchor="start" x="884" y="-264.4" font-family="Times Roman,serif" font-size="14.00">photo_file_name :string</text>
<text text-anchor="start" x="884" y="-246.4" font-family="Times Roman,serif" font-size="14.00">photo_content_type :string</text>
<text text-anchor="start" x="884" y="-228.4" font-family="Times Roman,serif" font-size="14.00">photo_file_size :integer</text>
<text text-anchor="start" x="884" y="-210.4" font-family="Times Roman,serif" font-size="14.00">photo_updated_at :datetime</text>
</g>
<!-- Team&#45;&gt;Player -->
<g id="edge6" class="edge"><title>Team&#45;&gt;Player</title>
<path fill="none" stroke="#e47088" d="M912.649,-583.706C927.419,-565.064 940.956,-544.867 951,-524 955.134,-515.411 958.724,-506.358 961.842,-497.068"/>
<ellipse fill="none" stroke="#e47088" cx="910.108" cy="-586.855" rx="4.00002" ry="4.00002"/>
<polygon fill="#e47088" stroke="#e47088" points="961.912,-496.846 969.214,-488.665 963.417,-492.078 964.923,-487.31 964.923,-487.31 964.923,-487.31 963.417,-492.078 960.632,-485.955 961.912,-496.846 961.912,-496.846"/>
</g>
<!-- Score -->
<g id="node5" class="node"><title>Score</title>
<polyline fill="none" stroke="black" points="911.5,-1 1052.5,-1 "/>
<path fill="none" stroke="black" d="M1052.5,-1C1058.5,-1 1064.5,-7 1064.5,-13"/>
<polyline fill="none" stroke="black" points="1064.5,-13 1064.5,-149 "/>
<path fill="none" stroke="black" d="M1064.5,-149C1064.5,-155 1058.5,-161 1052.5,-161"/>
<polyline fill="none" stroke="black" points="1052.5,-161 911.5,-161 "/>
<path fill="none" stroke="black" d="M911.5,-161C905.5,-161 899.5,-155 899.5,-149"/>
<polyline fill="none" stroke="black" points="899.5,-149 899.5,-13 "/>
<path fill="none" stroke="black" d="M899.5,-13C899.5,-7 905.5,-1 911.5,-1"/>
<text text-anchor="middle" x="982" y="-144.4" font-family="Times Roman,serif" font-size="14.00">Score</text>
<polyline fill="none" stroke="black" points="899.5,-135 1064.5,-135 "/>
<text text-anchor="start" x="907.5" y="-118.4" font-family="Times Roman,serif" font-size="14.00">id :integer</text>
<text text-anchor="start" x="907.5" y="-100.4" font-family="Times Roman,serif" font-size="14.00">player_id :integer</text>
<text text-anchor="start" x="907.5" y="-82.4" font-family="Times Roman,serif" font-size="14.00">match_id :integer</text>
<text text-anchor="start" x="907.5" y="-64.4" font-family="Times Roman,serif" font-size="14.00">terce :integer</text>
<text text-anchor="start" x="907.5" y="-46.4" font-family="Times Roman,serif" font-size="14.00">time :string</text>
<text text-anchor="start" x="907.5" y="-28.4" font-family="Times Roman,serif" font-size="14.00">created_at :datetime</text>
<text text-anchor="start" x="907.5" y="-10.4" font-family="Times Roman,serif" font-size="14.00">updated_at :datetime</text>
</g>
<!-- Match&#45;&gt;Score -->
<g id="edge18" class="edge"><title>Match&#45;&gt;Score</title>
<path fill="none" stroke="#5267f2" d="M835.107,-239.294C845.569,-225.866 856.373,-212.467 867,-200 875.849,-189.619 885.371,-178.996 895.012,-168.578"/>
<ellipse fill="none" stroke="#5267f2" cx="832.451" cy="-242.721" rx="4.00002" ry="4.00002"/>
<polygon fill="#5267f2" stroke="#5267f2" points="895.226,-168.348 905.336,-164.102 898.635,-164.691 902.045,-161.034 902.045,-161.034 902.045,-161.034 898.635,-164.691 898.754,-157.965 895.226,-168.348 895.226,-168.348"/>
</g>
<!-- Player&#45;&gt;Score -->
<g id="edge22" class="edge"><title>Player&#45;&gt;Score</title>
<path fill="none" stroke="#09a5b3" d="M982,-192.685C982,-185.445 982,-178.288 982,-171.302"/>
<ellipse fill="none" stroke="#09a5b3" cx="982" cy="-196.956" rx="4" ry="4"/>
<polygon fill="#09a5b3" stroke="#09a5b3" points="982,-171.202 986.5,-161.202 982,-166.202 982,-161.202 982,-161.202 982,-161.202 982,-166.202 977.5,-161.202 982,-171.202 982,-171.202"/>
</g>
<!-- User -->
<g id="node8" class="node"><title>User</title>
<polyline fill="none" stroke="black" points="371,-543 601,-543 "/>
<path fill="none" stroke="black" d="M601,-543C607,-543 613,-549 613,-555"/>
<polyline fill="none" stroke="black" points="613,-555 613,-817 "/>
<path fill="none" stroke="black" d="M613,-817C613,-823 607,-829 601,-829"/>
<polyline fill="none" stroke="black" points="601,-829 371,-829 "/>
<path fill="none" stroke="black" d="M371,-829C365,-829 359,-823 359,-817"/>
<polyline fill="none" stroke="black" points="359,-817 359,-555 "/>
<path fill="none" stroke="black" d="M359,-555C359,-549 365,-543 371,-543"/>
<text text-anchor="middle" x="486" y="-812.4" font-family="Times Roman,serif" font-size="14.00">User</text>
<polyline fill="none" stroke="black" points="359,-803 613,-803 "/>
<text text-anchor="start" x="367" y="-786.4" font-family="Times Roman,serif" font-size="14.00">id :integer</text>
<text text-anchor="start" x="367" y="-768.4" font-family="Times Roman,serif" font-size="14.00">first_name :string</text>
<text text-anchor="start" x="367" y="-750.4" font-family="Times Roman,serif" font-size="14.00">created_at :datetime</text>
<text text-anchor="start" x="367" y="-732.4" font-family="Times Roman,serif" font-size="14.00">updated_at :datetime</text>
<text text-anchor="start" x="367" y="-714.4" font-family="Times Roman,serif" font-size="14.00">email :string</text>
<text text-anchor="start" x="367" y="-696.4" font-family="Times Roman,serif" font-size="14.00">encrypted_password :string</text>
<text text-anchor="start" x="367" y="-678.4" font-family="Times Roman,serif" font-size="14.00">reset_password_token :string</text>
<text text-anchor="start" x="367" y="-660.4" font-family="Times Roman,serif" font-size="14.00">reset_password_sent_at :datetime</text>
<text text-anchor="start" x="367" y="-642.4" font-family="Times Roman,serif" font-size="14.00">remember_created_at :datetime</text>
<text text-anchor="start" x="367" y="-624.4" font-family="Times Roman,serif" font-size="14.00">sign_in_count :integer</text>
<text text-anchor="start" x="367" y="-606.4" font-family="Times Roman,serif" font-size="14.00">current_sign_in_at :datetime</text>
<text text-anchor="start" x="367" y="-588.4" font-family="Times Roman,serif" font-size="14.00">last_sign_in_at :datetime</text>
<text text-anchor="start" x="367" y="-570.4" font-family="Times Roman,serif" font-size="14.00">current_sign_in_ip :inet</text>
<text text-anchor="start" x="367" y="-552.4" font-family="Times Roman,serif" font-size="14.00">last_sign_in_ip :inet</text>
</g>
<!-- User&#45;&gt;Membership -->
<g id="edge26" class="edge"><title>User&#45;&gt;Membership</title>
<path fill="none" stroke="#6aae78" d="M518.693,-534.905C526.868,-497.123 535.327,-458.027 542.445,-425.131"/>
<ellipse fill="none" stroke="#6aae78" cx="517.8" cy="-539.033" rx="4.00001" ry="4.00001"/>
<polygon fill="#6aae78" stroke="#6aae78" points="542.495,-424.903 549.008,-416.08 543.552,-420.016 544.61,-415.129 544.61,-415.129 544.61,-415.129 543.552,-420.016 540.211,-414.177 542.495,-424.903 542.495,-424.903"/>
</g>
<!-- Object -->
<g id="node9" class="node"><title>Object</title>
<ellipse fill="none" stroke="black" cx="311" cy="-915" rx="43.1335" ry="18.3848"/>
<text text-anchor="middle" x="311" y="-911.4" font-family="Times Roman,serif" font-size="14.00">Object</text>
</g>
<!-- Object&#45;&gt;Ability -->
<g id="edge2" class="edge"><title>Object&#45;&gt;Ability</title>
<path fill="none" stroke="black" d="M311,-896.26C311,-855.562 311,-759.003 311,-712.257"/>
</g>
<!-- ActiveRecord::Base -->
<g id="node11" class="node"><title>ActiveRecord::Base</title>
<ellipse fill="none" stroke="black" cx="717" cy="-915" rx="103.945" ry="18.3848"/>
<text text-anchor="middle" x="717" y="-911.4" font-family="Times Roman,serif" font-size="14.00">ActiveRecord::Base</text>
</g>
<!-- ActiveRecord::Base&#45;&gt;Membership -->
<g id="edge4" class="edge"><title>ActiveRecord::Base&#45;&gt;Membership</title>
<path fill="none" stroke="black" d="M708.195,-896.46C700.416,-879.481 689.216,-853.494 682,-830 643.611,-705.014 654.908,-668.539 622,-542 610.985,-499.644 596.46,-452.892 584.237,-415.459"/>
</g>
<!-- ActiveRecord::Base&#45;&gt;Team -->
<g id="edge14" class="edge"><title>ActiveRecord::Base&#45;&gt;Team</title>
<path fill="none" stroke="black" d="M724.365,-896.26C733.37,-873.347 749.334,-832.729 764.845,-793.262"/>
</g>
<!-- ActiveRecord::Base&#45;&gt;Score -->
<g id="edge16" class="edge"><title>ActiveRecord::Base&#45;&gt;Score</title>
<path fill="none" stroke="black" d="M804.97,-905.053C859.118,-894.652 926.45,-873.399 971,-830 1087.03,-716.966 1068.56,-647.471 1097,-488 1119.47,-361.988 1144.97,-318.671 1097,-200 1089.57,-181.621 1077.79,-164.504 1064.55,-149.305"/>
</g>
<!-- ActiveRecord::Base&#45;&gt;Match -->
<g id="edge20" class="edge"><title>ActiveRecord::Base&#45;&gt;Match</title>
<path fill="none" stroke="black" d="M711.572,-896.295C706.912,-879.204 700.555,-853.146 698,-830 683.954,-702.773 678.944,-668.574 698,-542 702.993,-508.832 712.443,-473.556 722.439,-442.109"/>
</g>
<!-- ActiveRecord::Base&#45;&gt;Player -->
<g id="edge24" class="edge"><title>ActiveRecord::Base&#45;&gt;Player</title>
<path fill="none" stroke="black" d="M790.759,-901.802C833.799,-890.207 885.472,-868.841 916,-830 991.573,-733.849 1003.12,-592.612 998.699,-487.144"/>
</g>
<!-- ActiveRecord::Base&#45;&gt;User -->
<g id="edge28" class="edge"><title>ActiveRecord::Base&#45;&gt;User</title>
<path fill="none" stroke="black" d="M688.53,-896.962C670.141,-884.717 646.161,-867.604 627,-850 619.811,-843.395 612.628,-836.44 605.523,-829.274"/>
</g>
</g>
</svg>
